<?xml version="1.0" encoding="UTF-8"?>
<svg width="752pt" height="752pt" version="1.1" viewBox="0 0 752 752" xmlns="http://www.w3.org/2000/svg">
 <g fill-rule="evenodd">
  <path d="m423.99 239.98c-15.188 0.1875-29.48 0.11719-35.766-16.543 4.332-1.0625 9.3281-2.6523 14.453-3.3594 2.2773-0.3125 5.6562 0.40234 7.0664 1.9688 5.0664 5.6484 9.5039 11.855 14.246 17.934z"/>
  <path d="m417.96 459.79c-12.965 7.8867-26.09 14.277-37.91-1.1562 16.711-11.055 25.242-10.84 37.91 1.1562z"/>
  <path d="m393.83 446.68c-6.1484 3.8047-10.902 6.5273-15.418 9.6055-4.3242 2.9414-8.5039 3.0312-13.117 0.77734-3.5234-1.7188-7.8789-3.7539-11.855-5.3594 5.6328-2.8242 8.5938-6.3398 12.859-9.6602 1.3828-1.0781 3.6602-2.082 5.1914-1.7109 7.2031 1.7578 14.301 4.0078 22.34 6.3477z"/>
  <path d="m428.73 304.12c-2.7852-3.8711-5.3242-8.0508-8.5195-11.645-3.5078-3.9453-5.5547-8.1406-5.3242-13.477 0.17188-3.9414 0.03125-7.8945 0.03125-12.324 1.3906 0.78125 2.543 1.3516 3.6211 2.0352 4.6836 2.9609 12.172 3.7891 12.852 10.055 0.81641 7.4766-0.82422 15.23-1.5312 22.855-0.097656 1.082-0.94141 2.1016-1.1289 2.5z"/>
  <path d="m329.37 360.94c10.539 10.227 13.406 21.914 5.7734 33.848-2.8086-3.0078-7.7109-5.4883-11.672-8.0195-2.8086-1.7891-4.7344-4.6367-3.293-7.8555 2.7383-6.1445 6.1016-12.012 9.1914-17.973z"/>
  <path d="m405.89 243.23c3.3477 0.17969 7.0938 0.375 10.84 0.59375 5.332 0.30859 9.1211 2.6797 10.707 8.0078 1.7891 6.0273 3.6055 12.059 5.2695 17.641-13.719-4.0781-25.914-9.7109-26.816-26.242z"/>
  <path d="m407.36 215.52c-6.7148 1.4727-11.82 3.0195-17.035 3.5859-3.3594 0.36328-7.2422 0.085937-10.23-1.3203-5.1992-2.4375-7.1094-7.3086-5.3711-10.789 2.6367-5.2773 9.3281-7.9844 14.469-4.8398 6.1992 3.7812 11.762 8.5859 18.168 13.363z"/>
  <path d="m438.12 476.58c-12.77 5.5898-25.262 7.6523-34.898-5.6914 15.133-9.8945 25.438-8.2109 34.898 5.6914z"/>
  <path d="m411.67 328.05c-5.0977-12.742-8.2969-25.414 4.1484-36.211 0.40234 0.67578 0.96484 1.8359 1.7148 2.8555 9.3125 12.613 9.875 12.727-1.832 28.695-1.3008 1.7695-2.875 3.332-4.0312 4.6602z"/>
  <path d="m333.38 437.21c11.246-5.707 23.176-9.2031 33.398 1.1445-5.9805 3.7734-9.6914 7.625-13.398 9.2031-7.6445 3.2578-13.77-0.14062-20-10.348z"/>
  <path d="m317.67 414.24c20.805-0.50781 18.238-2.0039 31.238 14.77-7.5547 0.60938-12.266 6.6211-19.375 2.1641-6.2227-3.9023-9.7344-9.8125-11.863-16.934z"/>
  <path d="m336.62 411.78c-4.9727-1.6914-9.9297 0.074218-14.277-1.1992-2.4922-0.73438-4.8125-3.8086-5.3359-6.0898-1.3398-5.8164-1.2734-12.637 0.66016-17.465 12.34 5.5977 20.574 9.4727 18.953 24.754z"/>
  <path d="m348.79 345.43c0 8.0234 0.38672 16.074-0.22266 24.047-0.19922 2.6758-2.9297 5.1562-4.9258 8.4062-2.5273-7.5625-11.102-12.473-7.7148-20.41 2.168-5.0898 7.6484-8.7695 11.645-13.086 0.41016 0.35156 0.8125 0.69922 1.2188 1.043z"/>
  <path d="m403.73 313.55c0.18359 7.6953 5.0391 15.543-1.3203 23.02v-23.086c0.4375 0.019531 0.87891 0.042969 1.3203 0.066406z"/>
  <path d="m424.4 483.91c6.375-0.59766 12.973-5.1758 19.945 1.3867-7.4648 2.0703-13.797 1.9141-19.945-1.3867z"/>
  <path d="m445.96 383.82c8.9727 24.75 6.832 50.551 6.4141 77.051 5.4102-5.2031 9.9609-10.281 16.227-13.383 2.9688-13.398-2.9961-40.547-2.9961-40.547 9.082 15.277 7.3828 38.777 7.3828 38.777-0.19531 16.02-4.7109 29.277-17.176 38.801-8.2422 6.2969-17.543 8.5117-27.746 5.2461-1.3008-0.41797-2.6602-0.77734-4.0156-0.88281-9.3164-0.71484-17.121-4.7734-24.16-10.645-1.293-1.0781-2.7031-2.3711-4.2539-2.7383-14.066-3.293-25.328-13.895-40.148-15.281-1.8594-0.17969-3.5547-1.9922-5.3711-2.9727-1.2695-0.6875-2.6133-1.2422-3.7109-1.7578-2.4297 6.9766-4.0508 13.738-7.0703 19.805-5.1484 10.332-13.73 16.398-25.672 15.871-23.586-1.0547-36.859-27.121-34.387-44.973-0.17969-3.3281-0.93359-24.285 7.4062-38.312 0 0-5.7305 26.07-3.1719 39.723 5.9688 3.0391 10.34 8.4492 15.836 13.105-0.82031-26.633-2.5469-52.277 6.3398-77.141-25.102 0.84375-79.383 40.996-84.562 64.402 3.0273-0.68359 6.0078-1.4922 9.0352-2.0039 3.168-0.53906 6.3789-0.79688 10.367-1.2734 0 2.8555-0.074219 5.043 0.007812 7.2227 1.6016 40.238 20.023 68.836 57.871 84.312 10.656 4.3555 21.023 9.4688 31.348 14.59 18.465 9.168 33.602 22.074 43.801 40.289 0.55859 0.98828 1.3008 1.8867 2.2539 3.2383 1.3164-1.9414 2.4375-3.4062 3.3594-4.9883 8.6719-15.008 20.703-26.695 35.949-34.715 13.238-6.957 26.758-13.426 40.461-19.422 29.879-13.074 48.52-34.898 53.758-67.418 1.1953-7.418 1.6016-14.961 2.4609-23.309 6.4297 1.1016 12.742 2.1875 19.094 3.2773-8.2344-25.918-63.094-65.09-84.93-63.949z"/>
  <path d="m392.97 161.17c-20.363-8.7773-44.555-0.5625-55.402 18.805-10.586 18.891-6.0391 41.84 11.066 55.844 3.6836 3.0117 5.9062 11.648 3.6289 14.086-1.7109 1.8281-9.793 0.78906-12.977-1.6641-0.13672-0.10547-0.23047-0.28516-0.38281-0.33984-1.5664-0.59375-3.1289-1.6289-4.7109-1.6562-9.125-0.15625-18.262-0.24609-27.371 0.074218-1.8125 0.066406-3.5625 2.0234-5.3477 3.0938-2.3242 1.3867-4.5664 3.6992-7.0234 3.9609-8.3711 0.88672-16.828 1.1836-25.258 1.4258-4.9023 0.13672-7.1992 2.0117-7.0938 7.1758 0.20703 10.5 0.16016 21.008 0.003907 31.512-0.066407 4.7891 1.9375 6.8047 6.7148 7.0195 9.1133 0.39844 18.223 1.0195 27.301 1.9102 1.8594 0.18359 3.5742 1.9375 5.3555 2.9688 2.0273 1.168 4.0156 3.25 6.1016 3.3438 8.4219 0.38672 16.867 0.1875 25.309 0.13281 1.3398-0.007813 3.1875 0.074219 3.9297-0.70703 1.6719-1.7578 3.418-2.5664 5.2109-2.8828 0 0 3.4414-12.871 3.4414-25.672 0 0 1.1602 13.527 0.73047 25.617 2.6523 0.26172 5.3281 0.83203 7.9219 0.375 0.19922 1.5 0.39453 2.1875 0.36328 2.8594-1.2969 36.078-2.4727 72.164-4.0859 108.23-0.24219 5.3945 1.8516 8.0664 6.2148 9.7656 9.5586 3.7109 19.18 7.2344 28.738 10.949 2.3906 0.92969 4.5938 2.3359 6.9297 3.418 3.7852 1.7539 7.6016 3.418 12.059 5.4102-6.1484-47.078-7.2227-93.434-7.2344-138.95 2.8047-1.8359 5.4375-2.5781 6.0352-4.1172 3.2031-8.168 8.2656-16.012 5.5977-25.531-0.44922-1.6133-0.40625-3.4414-0.25-5.1445 0.83203-9.0977-2.5938-16.383-9.1484-22.465-0.51953-0.48438-0.80859-1.6289-0.65234-2.3438 0.76562-3.4609-1.3516-5.2383-3.5508-7.332-2.8516-2.7148-5.6367-5.6484-7.7773-8.9336-4.5078-6.8984-10.684-11.32-18.223-14.336-6.7109-2.6836-10.52-9.3398-10.043-16.504 0.44141-6.6172 5.0625-12.637 11.285-14.699 6.7578-2.2383 14.875-0.45313 18.379 5.625 3.1758 5.5156 7.8711 8.7422 12.516 12.469 3.3086 2.6602 6.0391 6.0703 8.918 9.2383 1.7031 1.8711 3.2031 3.9258 5.3125 6.543 1.0938-2.6289 1.7109-3.8398 2.1172-5.1211 6.8281-21.406-3.8086-44.473-24.648-53.453z"/>
  <path d="m489.49 261.88c0.070312-4.7695-1.8945-6.918-6.6641-7.0703-8.25-0.26562-16.484-0.86719-24.734-1.1641-3.6758-0.13672-6.6367-0.88672-8.3828-4.668-0.57813-1.25-2.5508-2.4844-3.9883-2.6055-4.2188-0.33984-8.4883-0.125-12.363-0.125 4.0742 21.074 6.8086 41.617-0.89453 63.125 6.6641-2.293 14.695 3.5977 18.941-5.7812 0.10547-0.23047 0.34766-0.42188 0.66016-0.57422 0.97266-4.2344 2.8984-13.852 2.8984-23.434 0 0 0.98047 11.461 0.80469 22.715 8.8516-0.6875 17.715-1.2734 26.586-1.832 5.707-0.35938 7.0469-1.582 7.0742-7.0938 0.046874-10.504-0.10156-20.996 0.0625-31.492z"/>
  <path d="m380.27 163.96c16.645 0 30.148 13.5 30.148 30.152 0 6.9414-2.3672 13.316-6.3125 18.414 7.1289-5.5117 11.738-14.125 11.738-23.84 0-16.656-13.5-30.152-30.152-30.152-9.707 0-18.324 4.6094-23.836 11.738 5.0977-3.9414 11.473-6.3125 18.414-6.3125z"/>
 </g>
</svg>
